inDegrees=no
num_controls=7
num_derivatives=13
num_iterations=63
num_multipliers=7
num_parameters=0
num_slacks=7
num_states=26
objective=0.430574
objective_accelerations=0.068483
objective_balance=0.003439
objective_effort=0.027607
objective_height=0.325847
objective_ligament=0.005198
solver_duration=929.602470
status=Solve_Succeeded
success=true
DataType=double
version=3
OpenSimVersion=4.5
endheader
time	/jointset/ground_pelvis/pelvis_tilt/value	/jointset/ground_pelvis/pelvis_tx/value	/jointset/ground_pelvis/pelvis_ty/value	/jointset/hip_l/hip_flexion_l/value	/jointset/hip_l/hip_adduction_l/value	/jointset/hip_l/hip_rotation_l/value	/jointset/back/lumbar_extension/value	/jointset/patellofemoral_l/patellar_flexion_l/value	/jointset/knee_l/knee_flexion_l/value	/jointset/knee_l/knee_adduction_l/value	/jointset/knee_l/knee_rotation_l/value	/jointset/ankle_l/ankle_angle_l/value	/jointset/subtalar_l/subtalar_angle_l/value	/jointset/ground_pelvis/pelvis_tilt/speed	/jointset/ground_pelvis/pelvis_tx/speed	/jointset/ground_pelvis/pelvis_ty/speed	/jointset/hip_l/hip_flexion_l/speed	/jointset/hip_l/hip_adduction_l/speed	/jointset/hip_l/hip_rotation_l/speed	/jointset/back/lumbar_extension/speed	/jointset/patellofemoral_l/patellar_flexion_l/speed	/jointset/knee_l/knee_flexion_l/speed	/jointset/knee_l/knee_adduction_l/speed	/jointset/knee_l/knee_rotation_l/speed	/jointset/ankle_l/ankle_angle_l/speed	/jointset/subtalar_l/subtalar_angle_l/speed	/forceset/tau_hip_flexion_l	/forceset/tau_hip_adduction_l	/forceset/tau_hip_rotation_l	/forceset/tau_knee_flexion_l	/forceset/tau_ankle_angle_l	/forceset/tau_subtalar_angle_l	/forceset/tau_lumbar_extension	lambda_cid13_p0	lambda_cid13_p1	lambda_cid13_p2	lambda_cid13_p3	lambda_cid13_p4	lambda_cid13_p5	lambda_cid14_p0	/jointset/ground_pelvis/pelvis_tilt/accel	/jointset/ground_pelvis/pelvis_tx/accel	/jointset/ground_pelvis/pelvis_ty/accel	/jointset/hip_l/hip_flexion_l/accel	/jointset/hip_l/hip_adduction_l/accel	/jointset/hip_l/hip_rotation_l/accel	/jointset/back/lumbar_extension/accel	/jointset/patellofemoral_l/patellar_flexion_l/accel	/jointset/knee_l/knee_flexion_l/accel	/jointset/knee_l/knee_adduction_l/accel	/jointset/knee_l/knee_rotation_l/accel	/jointset/ankle_l/ankle_angle_l/accel	/jointset/subtalar_l/subtalar_angle_l/accel	gamma_cid13_p0	gamma_cid13_p1	gamma_cid13_p2	gamma_cid13_p3	gamma_cid13_p4	gamma_cid13_p5	gamma_cid14_p0
1.5	-0.4111369865127316	-0.03643276997459696	0.7207758009024525	1.280662834099396	-0.4409823549573456	-0.1584811441607306	-0.2335270414240834	0.9619117366222615	0.9619117366222699	-0.1004976004409504	-0.1452864686033003	0.1728679242498758	-0.001797122838681269	0.7535630323589958	0.2750048580407691	0.7084240192152934	-2.92117832448863	0.1918330530532642	-0.8351884143140769	0.2876110648644934	-2.4131041477732	-2.413104147773194	-0.2163018590020774	0.1448935366824207	-0.4668101139476662	-0.02290760770698112	-0.1988336426952803	0.03200404871000185	-0.009470134975963754	-0.2133860272056015	0.03636879264534822	0.03895084697149316	0.1856907045239941	-19.83326767154531	-15.76090149357513	4.823612794196432	-8.501897018494855	-514.9483326966956	-52.77374560482614	-17.43062742586908	1.07595463329055	0.8969923068372132	-0.674907408254929	-1.556560930066086	0.8971192975617055	-0.3174336606154224	1.667829132474113	-1.698762959039749	-1.698762959039749	0.2786193171333194	0.2375177635691166	-1.015806627447495	0.4870216806721926	9.063611205934231e-07	-1.115328541786434e-06	-8.436524905256508e-06	-9.15545223439927e-07	1.483312916025051e-06	-1.835748534270708e-06	9.485266894956915e-07
1.51	-0.4035475833618488	-0.03363809548445339	0.7278248510372163	1.251374975003174	-0.4390214402843423	-0.1668405741380579	-0.2305688781939326	0.9376982845464095	0.9376982845464122	-0.1026564350299213	-0.1438236683171095	0.1681493215142882	-0.002004739065802768	0.7641911426467968	0.2838978663940981	0.701228692315038	-2.935995687337982	0.2003270304365033	-0.8366084014685811	0.3040155012182776	-2.429248383530457	-2.429248383530457	-0.2154360481412531	0.1476514752279844	-0.476802662333677	-0.01859304914322819	-0.1919441171667403	0.03198934958162013	-0.009443055827087456	-0.2094258036074504	0.03623530689255675	0.03864283883549238	0.1801283509228571	-19.57693408284592	-15.71907655929843	4.870696434833429	-8.374408129936391	-509.5839309640447	-52.90258259546743	-18.53907340877793	1.037432415678984	0.8804555850986232	-0.7651291710106665	-1.384457174171131	0.8232991216071567	-0.03999719863066539	1.62583889468922	-1.521762297015468	-1.521762297016327	-0.005419509522407586	0.2909930585985583	-0.9749622140670616	0.4082066321683402	9.453068038374895e-07	-1.013343060855547e-06	-8.420675680711818e-06	-8.837541438735604e-07	1.538788164041407e-06	-1.553656310613059e-06	9.52775835744072e-07
1.52	-0.3958556604702572	-0.030755490813673	0.7347972911349574	1.221950915636099	-0.4369760334049262	-0.175211347178084	-0.2274468529986721	0.9133334884303957	0.9133334884303922	-0.1048058078062986	-0.1423340764137543	0.1633339966408622	-0.002168302969698445	0.7740669805007644	0.2925908941681365	0.6931020118107822	-2.948418378659392	0.2087314943358295	-0.8374570268535958	0.3203834578864077	-2.443372955805586	-2.443372955805592	-0.2144094964836044	0.1502518601154911	-0.4861545415152559	-0.01409714306181507	-0.1850545916382041	0.03197465045323378	-0.009415976678189629	-0.2054655800093018	0.03610182113976373	0.03833483069948443	0.1745659973217187	-19.31973507550851	-15.67890191352922	4.919761370452379	-8.31952264281454	-504.2428251425089	-53.12759021974861	-19.66263747107163	0.9255001465238708	0.856996190979075	-0.8611781290550149	-1.077626624477738	0.8792166007791031	-0.2031613067175426	1.660533195343277	-1.294830262614322	-1.29483026261432	0.3107674764981957	0.2060070319577353	-0.8876727865611447	0.5232911842042273	9.779331157863442e-07	-8.402788578792199e-07	-8.292778123530519e-06	-8.275114733149308e-07	1.577812527490463e-06	-1.260651517943694e-06	9.543864066072296e-07
1.53	-0.3880687057953872	-0.02778703583829827	0.7416839166900485	1.192414373627647	-0.4348472509464024	-0.1835883007511765	-0.2241616535895376	0.8888374968793546	0.8888374968793525	-0.1069439670238732	-0.1408194693480026	0.1584283750671746	-0.002286235934837822	0.7831864083323736	0.3010577468390368	0.6840754572024387	-2.958484284026336	0.2169935010680033	-0.8378069939247219	0.3366312061419993	-2.455483048018682	-2.455483048018684	-0.213230295755331	0.1526774002736643	-0.4948573609538471	-0.00947529985114276	-0.1780941394688292	0.03159074910760471	-0.00922531902561031	-0.2018447778092526	0.03611926446367261	0.03783637124012935	0.1689029864462888	-19.03657543010195	-15.54914553833476	4.941500573896753	-8.143164183876529	-499.1067514032971	-53.27753607936834	-20.7980824071899	0.8846880354583041	0.8350364407811742	-0.9452182490402378	-0.9100220886985284	0.7960412105305742	0.06901469342811936	1.603112970862191	-1.117943254057151	-1.117943254056689	0.02001618810936444	0.2604339273348747	-0.8448359202967005	0.4347581390348847	1.003845095734036e-06	-5.916935127296151e-07	-8.045829212922824e-06	-7.452889873270219e-07	1.599357826086763e-06	-9.560521206993807e-07	9.531934911235881e-07
1.54	-0.3801946520554058	-0.02473521100908743	0.7484759118745928	1.162789382646346	-0.4326365787203381	-0.1919647681748325	-0.2207147332318082	0.8642306354955043	0.8642306354955006	-0.1090706302707441	-0.1392806855967489	0.1534390754195433	-0.002357325017963244	0.7914867935231391	0.3092648649353578	0.6741759377014381	-2.966108173229113	0.2251094478439395	-0.837359796966317	0.3527276476053942	-2.465546922367778	-2.465546922367777	-0.2121103023423585	0.1550871972153481	-0.5028901563039824	-0.004728366659023949	-0.1711336872994523	0.03120684776197609	-0.00903466137307038	-0.1982239756092027	0.03613670778758134	0.03733791178077554	0.1632399755708613	-18.75360989645037	-15.42125055129396	4.965707554184832	-8.032985616768265	-494.0065768381369	-53.52719197909679	-21.94103658300571	0.761691618355151	0.8050492760631935	-1.035771107586372	-0.5892233916444124	0.8500046095315834	-0.04372850081132997	1.63027183690393	-0.885586689814402	-0.885586689814404	0.2989260134380052	0.2028583886598636	-0.7536679688699851	0.5483091804935238	1.018805912077664e-06	-3.335032563719934e-07	-7.730794926019057e-06	-6.56717850444953e-07	1.607670351228136e-06	-6.593553868196827e-07	9.443542232038652e-07
1.55	-0.3722416715820352	-0.02160266296531788	0.7551646682263595	1.133100179885735	-0.430345580969077	-0.2003341809763607	-0.2171078549864289	0.8395334092097561	0.8395334092097585	-0.1111853747106699	-0.1377185521884702	0.1483729091239485	-0.002380336230518325	0.7989614548606416	0.3171954602140138	0.663439028901213	-2.971319303622061	0.2330535973953826	-0.8364193669131734	0.3686083838286648	-2.473544941214477	-2.473544941214477	-0.210829069371287	0.1573313255677587	-0.5102193919453796	0.0001414316696892517	-0.1641128069111087	0.03033597178343043	-0.008717131477535051	-0.1950394684275555	0.03648605509952927	0.03669566168067655	0.1575065930174653	-18.38842003493791	-15.23636984724772	4.970618642764389	-7.889182778397938	-489.1829793011981	-53.75260199215256	-23.08329432983418	0.7183185019562345	0.779570600660495	-1.112776951995394	-0.4249226667590077	0.7620541804235171	0.1793433287024458	1.561031868737947	-0.7040838269423884	-0.704083826942406	0.04392916536820134	0.2325605654630784	-0.7040651959027289	0.459434123382566	1.021149083399218e-06	-6.424647188339641e-08	-7.337314444687215e-06	-5.608319636196132e-07	1.600736419997529e-06	-3.717638955122588e-07	9.267050274773533e-07
